# xmcd
#
# Track frame offsets:
#	150
#	15435
#	35477
#	51695
#	69732
#	89672
#	105595
#	124962
#	164015
#	177707
#	196457
#	221702
#	244417
#	264967
#	279737
#	290940
#	312575
#	323772
#
# Disc length: 4701 seconds
#
# Revision: 0
# Processed by: cddbd v1.4PL0 Copyright (c) Steve Scherf et al.
# Submitted via: audiograbber 1.81.03
#
DISCID=2e125b12
DTITLE=Various Artist - The Very Best Of 25 Years British Blues [CD 2]
DYEAR=1993
DGENRE=Blues
TTITLE0=Eric Burdon Band - No More Elmore
TTITLE1=Medicine Head - Fire Under Mountain
TTITLE2=Gary Moore - Don't Let Me Be Misunderstood
TTITLE3=Jo Ann Kelly - Little More Time
TTITLE4=Chris Farlowe - The Thrill Is Gone
TTITLE5=Micki Pini - Freddie's Midnite Dream
TTITLE6=UFO - Boogie
TTITLE7=Climax Blues Band - And Lonely
TTITLE8=Shortlist Featuring Roger Chapman - Bring It On Home
TTITLE9=Paul Jones - Motel Blues
TTITLE10=Stretch - Showbiz Blues
TTITLE11=Blues 'N' Trouble - Wake Up Mama
TTITLE12=Jucy Lucy - Just One Time
TTITLE13=Status Quo - In My Chair
TTITLE14=Eric Clapton - Snake Drive
TTITLE15=Mick Clark Band - Closing Line
TTITLE16=Wilko Johnson - My Baby You Baby
TTITLE17=Long John Baldry Band Feat. Kathi McDonald - I'd Rather Go Blind
EXTD=
EXTT0=
EXTT1=
EXTT2=
EXTT3=
EXTT4=
EXTT5=
EXTT6=
EXTT7=
EXTT8=
EXTT9=
EXTT10=
EXTT11=
EXTT12=
EXTT13=
EXTT14=
EXTT15=
EXTT16=
EXTT17=
PLAYORDER=
